<svg width="30" height="30" viewBox="0 0 30 30" fill="none" xmlns="http://www.w3.org/2000/svg">
<circle cx="15" cy="15" r="15" fill="#2D6179"/>
<path d="M15.09 21.39C14.7633 21.21 14.4267 20.9267 14.08 20.54C13.7333 20.1467 13.4633 19.7967 13.27 19.49L15.35 17.59C15.5633 17.39 15.76 17.2233 15.94 17.09C16.1267 16.95 16.3133 16.82 16.5 16.7C16.3267 16.72 16.0967 16.7367 15.81 16.75C15.5233 16.7567 15.2833 16.76 15.09 16.76H9.21C9.17 16.5667 9.14 16.35 9.12 16.11C9.1 15.87 9.09 15.6567 9.09 15.47C9.09 15.2767 9.1 15.06 9.12 14.82C9.14 14.58 9.17 14.3667 9.21 14.18H15.09C15.2833 14.18 15.5233 14.1867 15.81 14.2C16.0967 14.2067 16.3267 14.22 16.5 14.24C16.3133 14.1133 16.1267 13.9833 15.94 13.85C15.76 13.71 15.5633 13.5433 15.35 13.35L13.27 11.45C13.4633 11.1367 13.7333 10.7867 14.08 10.4C14.4267 10.0133 14.7633 9.73 15.09 9.55L20.38 14.82C20.4 14.8867 20.4167 14.9833 20.43 15.11C20.45 15.23 20.46 15.35 20.46 15.47C20.46 15.7167 20.4333 15.9333 20.38 16.12L15.09 21.39Z" fill="white"/>
</svg>
