<svg width="50" height="50" viewBox="0 0 50 50" fill="none" xmlns="http://www.w3.org/2000/svg">
<circle cx="25" cy="25" r="25" fill="#2D6179"/>
<path d="M21.5147 34.1137L27.3288 30.5853C27.9557 30.2341 28.2691 30.0585 28.5979 29.9947C28.8888 29.9382 29.1871 29.9451 29.4737 30.0153C29.7975 30.0947 30.0983 30.2849 30.6999 30.6652L32.9947 32.1159C33.8851 32.6786 34.3302 32.9601 34.5855 33.3577C34.8105 33.7081 34.9322 34.12 34.9361 34.5434C34.9405 35.0241 34.7262 35.5235 34.2975 36.5224L33.1266 39.2505C19.2206 36.8708 11.2187 25.0817 13.6937 10.6188L16.5515 10.376C17.5976 10.287 18.1208 10.2425 18.554 10.4068C18.9358 10.5515 19.2678 10.8082 19.51 11.146C19.7848 11.5293 19.8912 12.0606 20.104 13.1231L20.5935 15.5671C20.7577 16.3862 20.8397 16.7958 20.7854 17.1808C20.7375 17.5212 20.6136 17.8462 20.4235 18.1298C20.2086 18.4507 19.877 18.6951 19.2141 19.1841L14.2259 22.9249" stroke="white" stroke-width="3" stroke-linecap="round" stroke-linejoin="round"/>
</svg>
